<svg xmlns="http://www.w3.org/2000/svg" viewBox="0 0 64 80" x="0px" y="0px"><g><path d="M4.77,24H4v2H9.8a10.981,10.981,0,0,0,2.7,2.864.983.983,0,0,1,.235,1.316L9.346,35.573A8.761,8.761,0,0,0,16.762,49h7.405a4.751,4.751,0,0,0,4.6,6h11.9a4.987,4.987,0,0,0,4.565-3H55.662a5,5,0,0,0,4.919-4.106l1.4-7.715a1,1,0,0,0-1.538-1.011L58.453,40.5a2.989,2.989,0,0,1-1.664.5H52.233l2.752-15.829A1,1,0,0,0,53.5,24.132l-5.616,3.209A5.017,5.017,0,0,1,45.406,28H26.541A11,11,0,1,0,8.026,19.516a10.933,10.933,0,0,1-4.71-.465,1,1,0,0,0-1.245,1.321A8.939,8.939,0,0,0,4.77,24ZM46.041,41.1a.991.991,0,0,0-.544,1.044c-.017.01-.036.013-.052.024L43.453,43.5a2.981,2.981,0,0,1-1.008.423l.8-1.434A1,1,0,0,0,42.8,41.1a3.738,3.738,0,1,1,3.239,0ZM35.025,44a12.534,12.534,0,0,0,4.511-3.287,5.8,5.8,0,0,0,1.49,1.641L40.113,44Zm2.436-4a10.49,10.49,0,0,1-2.4,1.768,5.875,5.875,0,0,0,0-2.091A5.342,5.342,0,0,0,34.885,39H37v1Zm1.275-3H33.764a5.662,5.662,0,0,0-3.118-1.872,5.742,5.742,0,0,0-6.961,5.609c0,.088.011.175.016.263H22v.931a4.262,4.262,0,0,1-.736-.839l-.288-.432A4.283,4.283,0,0,1,24.539,34h15.54A5.69,5.69,0,0,0,38.736,37Zm1.926,16h-11.9a2.763,2.763,0,0,1-2.416-4.1l.249-.448a.851.851,0,0,0,.043-.078l1.6-2.885A1,1,0,0,0,27.8,44.1,3.735,3.735,0,0,1,29.413,37a4.024,4.024,0,0,1,.825.087,3.736,3.736,0,0,1,.8,7.014,1,1,0,0,0,.435,1.9H40.54a.974.974,0,0,0,.2,0h1.047a4.987,4.987,0,0,0,2.773-.84l.033-.021-.981,5.4A3,3,0,0,1,40.662,53Zm18.9-10.84.033-.021-.981,5.4A3,3,0,0,1,55.662,50H45.744l.227-1.254a2.822,2.822,0,0,0,1.14.254h3.744a7.781,7.781,0,0,0,5.537-2.293l-1.414-1.414A5.8,5.8,0,0,1,50.855,47H47.111a.809.809,0,0,1-.362-.085.792.792,0,0,1-.368-.423l.6-3.313A.975.975,0,0,0,46.989,43h9.8A4.987,4.987,0,0,0,59.562,42.16ZM13,13.292a8.931,8.931,0,0,1,7.033-2.234A8.994,8.994,0,0,1,22.9,28.1a1,1,0,0,0,.435,1.9H45.406a7.022,7.022,0,0,0,3.474-.922l3.77-2.155L50.2,41H49.146a5.744,5.744,0,0,0-3.5-8.872,5.866,5.866,0,0,0-2.228-.028A.981.981,0,0,0,43,32H24.539a6.283,6.283,0,0,0-5.227,9.77l.288.432A6.269,6.269,0,0,0,24.828,45H25.6c.137.123.276.244.424.354L25.112,47h-8.35a6.761,6.761,0,0,1-5.723-10.362l3.393-5.392a2.991,2.991,0,0,0-.747-4A8.986,8.986,0,0,1,13,13.292ZM8.121,21.537a11.027,11.027,0,0,0,.558,2.247,6.907,6.907,0,0,1-3.644-2.29A12.9,12.9,0,0,0,8.121,21.537Z"/><path d="M17,21a3,3,0,1,0-3-3A3,3,0,0,0,17,21Zm0-4a1,1,0,1,1-1,1A1,1,0,0,1,17,17Z"/><circle cx="44" cy="37" r="1"/><circle cx="29" cy="40" r="1"/><path d="M35.855,50H32.111a.808.808,0,0,1-.724-1.17l.191-.382-1.787-.9-.192.383A2.808,2.808,0,0,0,32.111,52h3.744a7.781,7.781,0,0,0,5.537-2.293l-1.414-1.414A5.8,5.8,0,0,1,35.855,50Z"/></g><text x="0" y="79" fill="#000000" font-size="5px" font-weight="bold" font-family="'Helvetica Neue', Helvetica, Arial-Unicode, Arial, Sans-serif">Created by Pause08</text><text x="0" y="84" fill="#000000" font-size="5px" font-weight="bold" font-family="'Helvetica Neue', Helvetica, Arial-Unicode, Arial, Sans-serif">from the Noun Project</text></svg>