<svg xmlns="http://www.w3.org/2000/svg" xmlns:xlink="http://www.w3.org/1999/xlink" xml:space="preserve" version="1.1" style="shape-rendering:geometricPrecision;text-rendering:geometricPrecision;image-rendering:optimizeQuality;" viewBox="0 0 846.66 1058.325" x="0px" y="0px" fill-rule="evenodd" clip-rule="evenodd"><defs><style type="text/css">
   
    .fil0 {fill:black}
   
  </style></defs><g><path class="fil0" d="M750.37 101.53c-49.78,23.11 -116.45,7.55 -121.35,-26.67 -4.89,-34.22 -63.11,-60 -104.89,-60 -41.78,0 -99.56,35.56 -88,111.12 11.55,75.56 63.12,104 47.12,170.67 -0.4,1.65 -0.89,3.32 -1.44,5.02 79.06,105.35 5.91,201.98 -86.94,271.07 75.67,-91.57 104.67,-153.26 65,-233.12 -49.85,61.55 -170.74,130.02 -327.75,128.59l16.88 35.34 -73.78 -15.33c0,0 72.94,114.35 239.26,145.38l-22.2 87.2 22.31 17.03 1.84 23.08c0,0 -10.59,0.19 88.38,46.79 98.97,46.6 123.46,17.02 150.49,-16.41 -104.16,-38.47 -163.32,-25.7 -193.74,-48.92 -30.43,-23.21 -18.09,-71.12 -18.09,-71.12l6.88 -32.48c25.61,2.65 53.13,3.34 82.68,1.45 3.91,-0.24 7.76,-0.51 11.56,-0.8l-10.77 42.32 22.3 17.03 1.85 23.08c0,0 -10.6,0.19 88.37,46.79 98.97,46.6 123.47,17.01 150.5,-16.41 -104.17,-38.47 -163.32,-25.7 -193.75,-48.92 -25.54,-19.48 -20.95,-56.36 -18.82,-67.71 202.52,-24.08 221.66,-103.85 221.66,-160.72 0,-61.33 -24.88,-143.12 -109.34,-191.12l12.89 -71.56c0,0 135.12,-11.12 155.57,-68.01 20.44,-56.9 -14.68,-42.66 -14.68,-42.66zm-191.42 -32.48c12.96,0 23.47,15.92 23.47,35.56 0,19.64 -10.51,35.56 -23.47,35.56 -12.96,0 -23.47,-15.92 -23.47,-35.56 0,-19.64 10.51,-35.56 23.47,-35.56z"/></g><text x="0" y="861.66" fill="#000000" font-size="5px" font-weight="bold" font-family="'Helvetica Neue', Helvetica, Arial-Unicode, Arial, Sans-serif">Created by adindar</text><text x="0" y="866.66" fill="#000000" font-size="5px" font-weight="bold" font-family="'Helvetica Neue', Helvetica, Arial-Unicode, Arial, Sans-serif">from the Noun Project</text></svg>