<?xml version="1.0" encoding="utf-8"?>
<!-- Generator: Adobe Illustrator 26.1.0, SVG Export Plug-In . SVG Version: 6.00 Build 0)  -->
<svg version="1.1" id="Layer_1" xmlns="http://www.w3.org/2000/svg" xmlns:xlink="http://www.w3.org/1999/xlink" x="0px" y="0px"
	 viewBox="0 0 36 45" style="enable-background:new 0 0 36 45;" xml:space="preserve">
<style type="text/css">
	.st0{fill:#26BA1A;}
</style>
<path class="st0" d="M32.3,21.4c-0.8-3.5-2.7-5.7-6.1-7.5c0.9,4.5-3.8,6.5-6.9,5.5c0.6-1,0.9-2.2,0.9-3.5c0-3.9-3.1-7-7-7
	c-3.4,0-6.2,2.4-6.9,5.7c-1,0.2-2,0.3-3,0.3c-0.3,0-0.6,0.2-0.8,0.4s-0.2,0.7,0,1c0.6,1.6,2.4,2.3,4.4,2.6c0.2,0.5,0.5,1,0.9,1.4
	c-2.1,1.4-3.5,3.9-3.5,6.6c0,4.4,3.6,8,8,8h9.4c3.4,0,6.5-1.5,8.6-4.2C32.3,28.1,33.1,24.7,32.3,21.4z M12.2,12.9c0.6,0,1,0.4,1,1
	s-0.4,1-1,1s-1-0.4-1-1S11.7,12.9,12.2,12.9z"/>
</svg>
