<svg xmlns="http://www.w3.org/2000/svg" xmlns:xlink="http://www.w3.org/1999/xlink" version="1.1" x="0px" y="0px" viewBox="0 0 100 125" style="enable-background:new 0 0 100 100;" xml:space="preserve"><path d="M89,41.5H48.4941406c0.0595703-0.5625,0.0888672-1.1010742,0.0888672-1.6279297  c0-9.2587891-7.5322266-16.7915039-16.7910156-16.7915039c-7.5977783,0-14.0248413,5.0760498-16.0894775,12.0122681  c-0.840332,1.8987427-2.2976685,2.642395-3.3734131,2.9310913C10.9580078,38.3925781,10,39.6508789,10,41.0839844  c0,1.1225586,0.6015625,2.1723633,1.5693359,2.7397461l4.9138184,2.8837891  c1.7130127,3.8034058,4.8088379,6.9352417,8.7668457,8.6142578V57.625c0,0.9558716,0.0569458,1.9113159,0.1400757,2.8605347  c-0.8718872-0.1900635-1.7745361-0.2965698-2.7025757-0.2965698c-6.9960938,0-12.6875,5.6914062-12.6875,12.6875  s5.6914062,12.6875,12.6875,12.6875c4.6452637,0,8.7037964-2.5168457,10.9145508-6.2510376  C39.7433472,86.1150513,48.4244385,90,57.625,90C75.4765625,90,90,75.4765625,90,57.625V42.5C90,41.9477539,89.5527344,41.5,89,41.5  z M12.5810547,42.0986328C12.2226562,41.8886719,12,41.4995117,12,41.0839844c0-0.5302734,0.3486328-0.9941406,0.8486328-1.128418  c0.6688232-0.1798706,1.4425659-0.4970093,2.1984863-1.0135498C15.0300293,39.25177,15,39.5581055,15,39.8720703  c0,1.3416748,0.1700439,2.6574097,0.4805298,3.9284668L12.5810547,42.0986328z M22.6875,83.5639648  c-5.8935547,0-10.6875-4.7944336-10.6875-10.6875s4.7939453-10.6875,10.6875-10.6875s10.6875,4.7944336,10.6875,10.6875  S28.5810547,83.5639648,22.6875,83.5639648z M88,57.625C88,74.3740234,74.3740234,88,57.625,88  c-8.906189,0-17.2952271-3.8777466-23.0830078-10.6412354C35.0717163,75.9627075,35.375,74.4559937,35.375,72.8764648  c0-5.3086548-3.2802734-9.859436-7.9176636-11.7490845C27.3248901,59.9728394,27.25,58.7975464,27.25,57.625v-2.9804688  c0-0.4165039-0.2587891-0.7895508-0.6484375-0.9360352C20.8583984,51.5522461,17,45.9916992,17,39.8720703  c0-8.15625,6.6357422-14.7915039,14.7919922-14.7915039s14.7910156,6.6352539,14.7910156,14.7915039  c0,0.7675781-0.0722656,1.5732422-0.2216797,2.4624023C46.3125,42.625,46.3945312,42.9213867,46.5839844,43.1459961  C46.7744141,43.3706055,47.0537109,43.5,47.3476562,43.5H88V57.625z"/><path d="M31.75,31.7021484c-3.0322266,0-5.5,2.4672852-5.5,5.5c0,0.5522461,0.4472656,1,1,1s1-0.4477539,1-1  c0-1.9296875,1.5703125-3.5,3.5-3.5s3.5,1.5703125,3.5,3.5c0,0.5522461,0.4472656,1,1,1s1-0.4477539,1-1  C37.25,34.1694336,34.7822266,31.7021484,31.75,31.7021484z"/><path d="M43.3330078,58.6264648c0,8.4086914,6.8408203,15.25,15.25,15.25s15.25-6.8413086,15.25-15.25c0-0.5522461-0.4472656-1-1-1  h-28.5C43.7802734,57.6264648,43.3330078,58.0742188,43.3330078,58.6264648z M71.7958984,59.6264648  c-0.5126953,6.8408203-6.2431641,12.25-13.2128906,12.25s-12.7001953-5.4091797-13.2128906-12.25H71.7958984z"/><path d="M77.3125,10c-6.9960938,0-12.6875,5.6914062-12.6875,12.6875S70.3164062,35.375,77.3125,35.375S90,29.6835938,90,22.6875  S84.3085938,10,77.3125,10z M77.3125,33.375c-5.8935547,0-10.6875-4.7944336-10.6875-10.6875S71.4189453,12,77.3125,12  S88,16.7944336,88,22.6875S83.2060547,33.375,77.3125,33.375z"/><path d="M77.3125,16.6748047c-0.5527344,0-1,0.4477539-1,1s0.4472656,1,1,1c2.2128906,0,4.0126953,1.800293,4.0126953,4.0126953  c0,0.5522461,0.4472656,1,1,1s1-0.4477539,1-1C83.3251953,19.3720703,80.6279297,16.6748047,77.3125,16.6748047z"/><path d="M22.6875,66.8637695c-0.5527344,0-1,0.4477539-1,1s0.4472656,1,1,1c2.2128906,0,4.0126953,1.800293,4.0126953,4.0126953  c0,0.5522461,0.4472656,1,1,1s1-0.4477539,1-1C28.7001953,69.5610352,26.0029297,66.8637695,22.6875,66.8637695z"/><path d="M16.84375,23.6875c3.7734375,0,6.84375-3.0703125,6.84375-6.84375S20.6171875,10,16.84375,10S10,13.0703125,10,16.84375  S13.0703125,23.6875,16.84375,23.6875z M16.84375,12c2.6708984,0,4.84375,2.1728516,4.84375,4.84375  s-2.1728516,4.84375-4.84375,4.84375S12,19.5146484,12,16.84375S14.1728516,12,16.84375,12z"/><path d="M45.65625,21.465332c0,3.7734375,3.0703125,6.84375,6.84375,6.84375s6.84375-3.0703125,6.84375-6.84375  s-3.0703125-6.84375-6.84375-6.84375S45.65625,17.6918945,45.65625,21.465332z M57.34375,21.465332  c0,2.6708984-2.1728516,4.84375-4.84375,4.84375s-4.84375-2.1728516-4.84375-4.84375s2.1728516-4.84375,4.84375-4.84375  S57.34375,18.7944336,57.34375,21.465332z"/><text x="0" y="115" fill="#000000" font-size="5px" font-weight="bold" font-family="'Helvetica Neue', Helvetica, Arial-Unicode, Arial, Sans-serif">Created by Made by Made</text><text x="0" y="120" fill="#000000" font-size="5px" font-weight="bold" font-family="'Helvetica Neue', Helvetica, Arial-Unicode, Arial, Sans-serif">from the Noun Project</text></svg>